<svg preserveAspectRatio="xMidYMid meet" width="100%" height="100%" overflow="visible" style="display: block;" viewBox="0 0 387.397 157.6" fill="none" xmlns="http://www.w3.org/2000/svg">
<g id="AURE_logo">
<path id="Vector" d="M386.15 97.8434H387.397L383.5 153.222H307.579V151.471C317.868 150.815 319.895 147.75 319.895 131.99V19.0433C319.895 7.00445 317.868 2.40778 307.579 1.75111V0H381.161L384.591 46.8423H383.344C377.732 13.5711 373.211 3.06445 352.477 3.06445H330.496V73.1089H346.085C359.024 73.1089 363.545 65.8856 366.039 42.6834H367.287V106.818H366.039C363.545 83.6156 359.024 76.1734 346.085 76.1734H330.496V150.158H352.009C376.64 150.158 381.785 138.119 386.15 97.8434Z" fill="var(--fill-0, white)"/>
<path id="Vector_2" d="M206.188 153.222V151.471C216.477 150.815 218.503 147.75 218.503 131.99V19.0433C218.503 7.00445 216.477 2.40778 206.188 1.75111V0H243.758C271.507 0 282.108 12.4767 282.108 36.7734C282.108 62.3834 265.583 74.2034 247.344 74.2034V75.0789C259.503 75.0789 269.948 82.5212 275.56 100.032L284.602 128.269C289.279 142.935 294.112 150.377 302.062 151.471V153.222H282.108C279.77 147.75 275.872 136.149 273.378 128.488L264.648 101.783C257.788 80.989 253.735 76.3923 239.861 76.3923H229.104V131.99C229.104 147.75 231.131 150.815 241.42 151.471V153.222H206.188ZM229.104 73.3278H238.769C261.998 73.3278 270.416 61.5078 270.416 36.9923C270.416 17.2922 266.051 3.06445 242.355 3.06445H229.104V73.3278Z" fill="var(--fill-0, white)"/>
<path id="Vector_3" d="M199.99 0V1.75111C190.168 2.18888 186.115 8.75556 186.115 25.61V94.9978C186.115 136.149 174.735 157.6 149.324 157.6C124.693 157.6 109.883 136.806 109.883 96.0923V19.0433C109.883 7.00445 107.856 2.40778 97.5674 1.75111V0H133.423V1.75111C123.134 2.40778 121.107 5.25333 121.107 19.0433V92.809C121.107 130.02 131.552 149.501 152.13 149.501C173.02 149.501 182.997 130.239 182.997 91.7145V25.61C182.997 8.97445 177.697 2.18888 164.758 1.75111V0H199.99Z" fill="var(--fill-0, white)"/>
<path id="Vector_4" d="M90.7303 131.771C91.5098 148.188 93.2247 151.252 101.175 151.471L100.863 153.222H65.9432L66.0991 151.471C77.6352 151.252 79.8178 146.437 79.3501 130.458L78.103 95.6545H39.753L26.1902 128.488C18.0837 147.969 22.4487 151.252 33.5172 151.471L33.2054 153.222H0L0.311787 151.471C10.6008 151.252 15.1217 145.561 22.137 128.707L75.6086 0H84.8064L90.7303 131.771ZM41.156 92.1523H77.9471L75.1409 9.63113L41.156 92.1523Z" fill="var(--fill-0, white)"/>
</g>
</svg>
