<svg preserveAspectRatio="xMidYMid meet" width="100%" height="100%" overflow="visible" style="display: block;" viewBox="0 0 72 72" fill="none" xmlns="http://www.w3.org/2000/svg">
<g id="Group 1502">
<circle id="Ellipse 75" cx="36" cy="36" r="36" fill="var(--fill-0, #C43B3B)"/>
<g id="Group 1501">
<path id="Vector 131" d="M37.5937 58.7529L44.7991 49.87L44.9181 49.1457C47.7421 38.9062 43.0992 33.0792 43.0992 33.0792C39.0131 28.6011 43.1964 24.0569 43.1964 24.0569C37.8635 29.1308 37.7595 43.4144 37.7595 43.4144C43.7739 49.9993 37.5937 58.7529 37.5937 58.7529Z" fill="var(--fill-0, white)"/>
<path id="Vector 132" d="M18.8111 57.3839L26.0165 48.5009L26.1355 47.7767C28.9595 37.5372 24.3165 31.7102 24.3165 31.7102C20.2305 27.232 24.4138 22.6878 24.4138 22.6878C19.0809 27.7617 18.9769 42.0454 18.9769 42.0454C24.9913 48.6303 18.8111 57.3839 18.8111 57.3839Z" fill="var(--fill-0, white)"/>
<path id="Vector 130" d="M50.477 57.1722L45.2025 47.0231L45.2314 46.2897C44.5215 35.6917 50.2402 30.9159 50.2402 30.9159C55.1424 27.3496 51.957 22.0579 51.957 22.0579C56.1621 28.0994 53.3953 42.113 53.3953 42.113C46.1809 47.3557 50.477 57.1722 50.477 57.1722Z" fill="var(--fill-0, white)"/>
<path id="Vector 135" d="M13.5569 61.6588L20.6052 52.6507L21.2845 52.3729C30.6341 47.3322 37.3512 50.5557 37.3512 50.5557C42.6292 53.5378 46.1237 48.4449 46.1237 48.4449C42.3697 54.7767 28.4705 58.0698 28.4705 58.0698C20.7082 53.6789 13.5569 61.6588 13.5569 61.6588Z" fill="var(--fill-0, white)"/>
<path id="Vector 133" d="M38.356 5.21852L31.1506 14.1015L31.0317 14.8257C28.2076 25.0652 32.8506 30.8922 32.8506 30.8922C36.9367 35.3704 32.7534 39.9146 32.7534 39.9146C38.0862 34.8406 38.1903 20.557 38.1903 20.557C32.1759 13.9721 38.356 5.21852 38.356 5.21852Z" fill="var(--fill-0, white)"/>
<path id="Vector 129" d="M44.5962 7.14951L38 16.4937L37.9297 17.2243C35.7956 27.6295 40.8173 33.1335 40.8173 33.1335C45.1933 37.3288 41.3227 42.1422 41.3227 42.1422C46.3049 36.7235 45.455 22.4648 45.455 22.4648C39.0143 16.2962 44.5962 7.14951 44.5962 7.14951Z" fill="var(--fill-0, white)"/>
<path id="Vector 134" d="M36.4369 44.9337L27.2434 38.129L26.9475 37.4574C21.6584 28.2461 24.701 21.4451 24.701 21.4451C27.5408 16.0892 22.3562 12.7322 22.3562 12.7322C28.7861 16.3154 32.4501 30.1215 32.4501 30.1215C28.2685 37.9985 36.4369 44.9337 36.4369 44.9337Z" fill="var(--fill-0, white)"/>
</g>
</g>
</svg>
