<svg preserveAspectRatio="xMidYMid meet" width="100%" height="100%" overflow="visible" style="display: block;" viewBox="0 0 16 16" fill="none" xmlns="http://www.w3.org/2000/svg">
<g id="ritual">
<g id="Group 1507">
<circle id="Ellipse 76" cx="8" cy="8" r="8" fill="var(--fill-0, #4B3A5A)"/>
</g>
<path id="Star 1" d="M7.93333 2.13333L8.31146 3.15521L9.33333 3.53333L8.31146 3.91146L7.93333 4.93333L7.55521 3.91146L6.53333 3.53333L7.55521 3.15521L7.93333 2.13333Z" fill="var(--fill-0, white)"/>
<path id="Union" d="M8.0668 6.13385H8.8666V6.40046H8.0668V7.26667H9.73281V7.53327H8.0668V8.40046H11.267V8.66706H8.0668V9.53327H9.73281V9.79987H8.0668V10.6671H9.00039V10.9337H8.0668V13.2667H7.8002V10.9337H6.8666V10.6671H7.8002V9.79987H6.1332V9.53327H7.8002V8.66706H4.6V8.40046H7.8002V7.53327H6.1332V7.26667H7.8002V6.40046H7.00039V6.13385H7.8002V5.26667H8.0668V6.13385Z" fill="var(--fill-0, white)"/>
</g>
</svg>
