<svg preserveAspectRatio="xMidYMid meet" width="100%" height="100%" overflow="visible" style="display: block;" viewBox="0 0 10.3077 6" fill="none" xmlns="http://www.w3.org/2000/svg">
<g id="Group 1512">
<path id="Exclude (Stroke)" d="M4 3C4 2.21817 4.27158 1.49933 4.72506 0.933293C4.25767 0.54265 3.65655 0.307692 3 0.307692C1.51308 0.307692 0.307692 1.51308 0.307692 3C0.307692 4.48692 1.51308 5.69231 3 5.69231V6C1.34315 6 0 4.65685 0 3C0 1.34315 1.34315 0 3 0C3.84513 0 4.60858 0.349508 5.15385 0.911809C4.63013 1.45189 4.30769 2.18827 4.30769 3C4.30769 3.81169 4.63017 4.54797 5.15385 5.08804C4.60858 5.65039 3.84516 6 3 6V5.69231C3.65661 5.69231 4.2578 5.45731 4.72521 5.06656C4.27173 4.50055 4 3.78184 4 3ZM10 3C10 1.51308 8.79461 0.307692 7.30769 0.307692C6.6511 0.307692 6.04988 0.542605 5.58248 0.933293C6.036 1.49934 6.30769 2.21814 6.30769 3C6.30769 3.78188 6.03585 4.50054 5.58233 5.06656C6.04976 5.45736 6.65104 5.69231 7.30769 5.69231V6C6.46253 6 5.69912 5.65039 5.15385 5.08804C5.67752 4.54797 6 3.81169 6 3C6 2.18827 5.67756 1.45189 5.15385 0.911809C5.69911 0.349508 6.46257 0 7.30769 0C8.96455 0 10.3077 1.34315 10.3077 3C10.3077 4.65685 8.96455 6 7.30769 6V5.69231C8.79461 5.69231 10 4.48692 10 3Z" fill="var(--fill-0, white)"/>
<path id="Intersect" d="M5.15359 0.914095C5.67673 1.45404 6.00021 2.18886 6.00027 3.00003C6.00027 3.81093 5.67635 4.54507 5.15359 5.08499C4.63095 4.54509 4.30788 3.81081 4.30788 3.00003C4.30794 2.18897 4.63058 1.45402 5.15359 0.914095Z" fill="var(--fill-0, #D9D9D9)"/>
</g>
</svg>
