<svg preserveAspectRatio="xMidYMid meet" width="100%" height="100%" overflow="visible" style="display: block;" viewBox="0 0 10.2669 10.2669" fill="none" xmlns="http://www.w3.org/2000/svg">
<g id="Group 1511">
<circle id="Ellipse 77" cx="5.13356" cy="5.19391" r="0.724706" fill="var(--fill-0, white)"/>
<path id="Polygon 1" d="M5.13351 0.000195313L5.86573 3.71431H4.40129L5.13351 0.000195313Z" fill="var(--fill-0, white)"/>
<path id="Polygon 2" d="M5.13351 10.2669L5.86573 6.55274H4.40129L5.13351 10.2669Z" fill="var(--fill-0, white)"/>
<path id="Polygon 3" d="M0.000195276 5.13355L3.71431 4.40133L3.71431 5.86576L0.000195276 5.13355Z" fill="var(--fill-0, white)"/>
<path id="Polygon 4" d="M10.2669 5.13355L6.55274 4.40133L6.55274 5.86576L10.2669 5.13355Z" fill="var(--fill-0, white)"/>
<path id="Polygon 5" d="M8.71238 1.53387L5.8358 3.65835L6.58791 4.41046L8.71238 1.53387Z" fill="var(--fill-0, white)"/>
<path id="Polygon 6" d="M1.58189 1.53387L4.45847 3.65835L3.70637 4.41046L1.58189 1.53387Z" fill="var(--fill-0, white)"/>
<path id="Polygon 7" d="M8.71238 8.72062L5.8358 6.59615L6.58791 5.84404L8.71238 8.72062Z" fill="var(--fill-0, white)"/>
<path id="Polygon 8" d="M1.58189 8.72062L4.45847 6.59615L3.70637 5.84404L1.58189 8.72062Z" fill="var(--fill-0, white)"/>
</g>
</svg>
