<svg width="100%" height="100%" viewBox="0 0 16 16" fill="none" xmlns="http://www.w3.org/2000/svg">
<circle cx="8" cy="8" r="8" fill="#4A6B4A"/>
<path d="M4.73324 3.5999V11.4666H4.33324V3.5999H4.73324Z" fill="white"/>
<path d="M11.1332 3.5999V11.4666H10.7332V3.5999H11.1332Z" fill="white"/>
<path d="M10.2664 3.5998V11.4665H9.99971V3.5998H10.2664Z" fill="white" fill-opacity="0.5"/>
<path d="M9.53304 3.5998V11.4665H9.13304V3.5998H9.53304Z" fill="white"/>
<path d="M8.66637 3.5998V11.4665H8.39971V3.5998H8.66637Z" fill="white" fill-opacity="0.5"/>
<path d="M7.93304 3.5998V11.9785L8.88773 12.9331L7.73304 14.0878L6.57835 12.9331L7.53304 11.9785V3.5998H7.93304Z" fill="white"/>
<path d="M7.06637 3.5998V11.4665H6.79971V3.5998H7.06637Z" fill="white" fill-opacity="0.5"/>
<path d="M6.33304 3.5998V11.4665H5.93304V3.5998H6.33304Z" fill="white"/>
<path d="M5.46657 3.5999V11.4666H5.1999V3.5999H5.46657Z" fill="white" fill-opacity="0.5"/>
<path d="M3.5998 4.59977L11.9998 4.59977L11.9998 4.86644L3.5998 4.86644L3.5998 4.59977Z" fill="white" fill-opacity="0.75"/>
<path d="M3.5998 5.39977L11.9998 5.39977L11.9998 5.66644L3.5998 5.66644L3.5998 5.39977Z" fill="white" fill-opacity="0.75"/>
<path d="M3.5998 6.19977L11.9998 6.19977L11.9998 6.46644L3.5998 6.46644L3.5998 6.19977Z" fill="white" fill-opacity="0.75"/>
<path d="M3.5998 6.99977L11.9998 6.99977L11.9998 7.26644L3.5998 7.26644L3.5998 6.99977Z" fill="white" fill-opacity="0.75"/>
<path d="M3.5998 7.79977L11.9998 7.79977L11.9998 8.06644L3.5998 8.06644L3.5998 7.79977Z" fill="white" fill-opacity="0.75"/>
<path d="M3.5998 8.59977L11.9998 8.59977L11.9998 8.86644L3.5998 8.86644L3.5998 8.59977Z" fill="white" fill-opacity="0.75"/>
<path d="M3.5998 9.39977L11.9998 9.39977L11.9998 9.66644L3.5998 9.66644L3.5998 9.39977Z" fill="white" fill-opacity="0.75"/>
<path d="M3.5999 10.1999L11.9999 10.1999L11.9999 10.4666L3.5999 10.4666L3.5999 10.1999Z" fill="white" fill-opacity="0.75"/>
</svg>
