<svg width="100%" height="100%" viewBox="0 0 16 16" fill="none" xmlns="http://www.w3.org/2000/svg">
<circle cx="8" cy="8" r="8" fill="#C43B3B"/>
<path d="M8.35417 13.056L9.95536 11.0821L9.9818 10.9211C10.6094 8.64568 9.57759 7.35079 9.57759 7.35079C8.66958 6.35564 9.5992 5.34582 9.5992 5.34582C8.41412 6.47335 8.391 9.6475 8.391 9.6475C9.72753 11.1108 8.35417 13.056 8.35417 13.056Z" fill="white"/>
<path d="M4.18023 12.7518L5.78142 10.7778L5.80786 10.6169C6.43542 8.34145 5.40365 7.04656 5.40365 7.04656C4.49564 6.05141 5.42525 5.04159 5.42525 5.04159C4.24018 6.16912 4.21706 9.34327 4.21706 9.34327C5.55359 10.8066 4.18023 12.7518 4.18023 12.7518Z" fill="white"/>
<path d="M11.2171 12.7048L10.045 10.4495L10.0514 10.2865C9.89361 7.9314 11.1644 6.87012 11.1644 6.87012C12.2538 6.07761 11.546 4.90166 11.546 4.90166C12.4804 6.24424 11.8656 9.35835 11.8656 9.35835C10.2624 10.5234 11.2171 12.7048 11.2171 12.7048Z" fill="white"/>
<path d="M3.01269 13.7019L4.57897 11.7001L4.72993 11.6383C6.80761 10.5182 8.30031 11.2345 8.30031 11.2345C9.4732 11.8972 10.2498 10.7655 10.2498 10.7655C9.41554 12.1725 6.32682 12.9043 6.32682 12.9043C4.60186 11.9286 3.01269 13.7019 3.01269 13.7019Z" fill="white"/>
<path d="M8.52342 1.15977L6.92222 3.13376L6.89579 3.2947C6.26822 5.57014 7.29999 6.86503 7.29999 6.86503C8.208 7.86018 7.27839 8.87 7.27839 8.87C8.46346 7.74247 8.48659 4.56832 8.48659 4.56832C7.15005 3.10502 8.52342 1.15977 8.52342 1.15977Z" fill="white"/>
<path d="M9.91035 1.58867L8.44453 3.66517L8.4289 3.82751C7.95466 6.13978 9.07059 7.36289 9.07059 7.36289C10.043 8.29519 9.1829 9.36483 9.1829 9.36483C10.29 8.16068 10.1012 4.99208 10.1012 4.99208C8.66993 3.62127 9.91035 1.58867 9.91035 1.58867Z" fill="white"/>
<path d="M8.09697 9.98524L6.05397 8.47309L5.98823 8.32383C4.81287 6.27687 5.48901 4.76554 5.48901 4.76554C6.12006 3.57534 4.96793 2.82934 4.96793 2.82934C6.39681 3.6256 7.21102 6.69363 7.21102 6.69363C6.28177 8.44409 8.09697 9.98524 8.09697 9.98524Z" fill="white"/>
</svg>
