<svg width="100%" height="100%" viewBox="0 0 16 16" fill="none" xmlns="http://www.w3.org/2000/svg">
<circle cx="8" cy="8" r="8" fill="#D4A843"/>
<g transform="translate(2.8, 2.8)">
<circle cx="5.13356" cy="5.19391" r="0.724706" fill="white"/>
<path d="M5.13351 0.000195313L5.86573 3.71431H4.40129L5.13351 0.000195313Z" fill="white"/>
<path d="M5.13351 10.2669L5.86573 6.55274H4.40129L5.13351 10.2669Z" fill="white"/>
<path d="M0.000195276 5.13355L3.71431 4.40133L3.71431 5.86576L0.000195276 5.13355Z" fill="white"/>
<path d="M10.2669 5.13355L6.55274 4.40133L6.55274 5.86576L10.2669 5.13355Z" fill="white"/>
<path d="M8.71238 1.53387L5.8358 3.65835L6.58791 4.41046L8.71238 1.53387Z" fill="white"/>
<path d="M1.58189 1.53387L4.45847 3.65835L3.70637 4.41046L1.58189 1.53387Z" fill="white"/>
<path d="M8.71238 8.72062L5.8358 6.59615L6.58791 5.84404L8.71238 8.72062Z" fill="white"/>
<path d="M1.58189 8.72062L4.45847 6.59615L3.70637 5.84404L1.58189 8.72062Z" fill="white"/>
</g>
</svg>
